# xmcd
#
# Track frame offsets: 
#        150
#        17372
#        28505
#        46604
#        59702
#        74318
#        89408
#        104373
#        116146
#
# Disc length: 1759 seconds
#
# Revision: 0
# Processed by: cddbd v1.5.2PL0 Copyright (c) Steve Scherf et al.
# Submitted via: ExactAudioCopy v0.95a3
#
DISCID=7106dd09
DTITLE=Various Artist - Deer Huntin' Songs
DYEAR=2010
DGENRE=Comedy
TTITLE0=01 - Da Farty Point Buck - Harry and Da Hosers
TTITLE1=02 - Red Neck - Billy Joe Duprix
TTITLE2=03 - The Johnson Place - Billy Joe Duprix
TTITLE3=04 - Coon Huntin' Dog - Otis Judd-Redlin
TTITLE4=05 - Wise Huntin' Farmer - Webster P. Hutchins
TTITLE5=06 - Trophy Buck - Billy Joe Duprix
TTITLE6=07 - O'Dools - Elvi Jones
TTITLE7=08 - Pan Fried Squirrel - Otis Judd-Redlin
TTITLE8=09 - First Things First - Billy Joe Duprix
EXTD=
EXTT0=
EXTT1=
EXTT2=
EXTT3=
EXTT4=
EXTT5=
EXTT6=
EXTT7=
EXTT8=
PLAYORDER=
